<?xml version="1.0" encoding="UTF-8"?>
<!DOCTYPE svg PUBLIC "-//W3C//DTD SVG 1.1//EN" "http://www.w3.org/Graphics/SVG/1.1/DTD/svg11.dtd">
<!-- Creator: CorelDRAW 2017 -->
<svg xmlns="http://www.w3.org/2000/svg" xml:space="preserve" width="100mm" height="100mm" version="1.1" style="shape-rendering:geometricPrecision; text-rendering:geometricPrecision; image-rendering:optimizeQuality; fill-rule:evenodd; clip-rule:evenodd"
viewBox="0 0 10000 10000"
 xmlns:xlink="http://www.w3.org/1999/xlink">
 <defs>
  <style type="text/css">
   <![CDATA[
    .fil1 {fill:#C74545}
    .fil0 {fill:#EB5151}
    .fil2 {fill:white;fill-rule:nonzero}
   ]]>
  </style>
 </defs>
 <g id="Слой_x0020_1">
  <metadata id="CorelCorpID_0Corel-Layer"/>
  <g id="_2227259604144">
   <path class="fil0" d="M5000 0c2761,0 5000,2239 5000,5000 0,2761 -2239,5000 -5000,5000 -2761,0 -5000,-2239 -5000,-5000 0,-2761 2239,-5000 5000,-5000z"/>
   <path class="fil1" d="M2889 3598l4759 66 2353 1595c-161,2134 -1367,3552 -2944,4299l-3187 -1951 -5 -1106 -976 -2903z"/>
   <polygon class="fil1" points="1917,2938 2978,2734 3854,3536 2954,3794 "/>
   <path class="fil2" d="M2000 2958c-100,0 -181,-81 -181,-181 0,-100 81,-181 181,-181l803 0c85,0 156,58 175,137l269 802 1274 2c9,-1 17,-1 26,0l3028 4c22,-1 45,2 67,10 94,33 144,135 111,229l-686 1957 0 0c-25,70 -91,121 -170,121l-2125 -7c-9,1 -17,1 -26,0l-721 -2 203 605 2384 3c9,0 19,-1 28,-1 166,0 316,67 424,176 109,109 176,259 176,424 0,166 -67,316 -176,424 -109,109 -259,176 -424,176 -166,0 -316,-67 -424,-176 -109,-109 -176,-259 -176,-424 0,-85 18,-166 50,-240l-1441 -2c32,73 49,154 49,238 0,166 -67,316 -176,424 -109,109 -259,176 -424,176 -166,0 -316,-67 -424,-176 -109,-109 -176,-259 -176,-424 0,-166 67,-316 176,-424 54,-54 118,-98 189,-128l-1191 -3543 -674 0zm1369 938l207 617 869 2 -71 -617 -1005 -1zm328 977l207 617 653 2 -71 -617 -789 -2zm1224 620l866 3 79 -618 -1016 -2 71 617zm1229 4l619 2 217 -619 -758 -2 -79 618zm963 -977l217 -619 -976 -1 -79 618 838 2zm-1122 -621l-1254 -2 71 617 1104 2 79 -618zm-1723 2986c-43,-43 -103,-70 -169,-70 -66,0 -126,27 -169,70 -43,43 -70,103 -70,169 0,66 27,126 70,169 43,43 103,70 169,70 66,0 126,-27 169,-70 43,-43 70,-103 70,-169 0,-66 -27,-126 -70,-169zm2541 4c-43,-43 -103,-70 -169,-70 -66,0 -126,27 -169,70 -43,43 -70,103 -70,169 0,66 27,126 70,169 43,43 103,70 169,70 66,0 126,-27 169,-70 43,-43 70,-103 70,-169 0,-66 -27,-126 -70,-169z"/>
  </g>
 </g>
</svg>
